<?xml version="1.0" encoding="utf-8"?>
<!-- Generator: Adobe Illustrator 18.1.1, SVG Export Plug-In . SVG Version: 6.00 Build 0)  -->
<svg version="1.0" id="_x33_" xmlns="http://www.w3.org/2000/svg" xmlns:xlink="http://www.w3.org/1999/xlink" x="0px" y="0px"
	 viewBox="0 0 1361.1 625.8" enable-background="new 0 0 1361.1 625.8" xml:space="preserve">
<g>
	<polygon fill="#FB2E39" points="1129.8,0 0.6,158.7 0,499.9 231.3,625.8 1360.5,467.1 1361.1,125.8 	"/>
	<g>
		<polygon fill="#FFFFFF" points="1315.9,180.9 1270.7,187.3 1270.6,236 1315.8,229.7 		"/>
		<polygon fill="#FFFFFF" points="1270.6,236 1225.4,242.4 1225.4,291.1 1270.5,284.8 		"/>
		<polygon fill="#FFFFFF" points="1225.4,291.1 1135,303.8 1135.2,206.3 1090.1,212.7 1089.6,456.4 1134.8,450.1 1134.9,352.6 
			1225.3,339.9 		"/>
		<polygon fill="#FFFFFF" points="819,250.8 818.6,494.5 1044.4,462.8 1044.5,414 863.9,439.4 863.9,390.7 999.4,371.6 999.5,322.9 
			864,341.9 864.1,293.2 1044.8,267.8 1044.9,219 		"/>
		<polygon fill="#FFFFFF" points="548,288.8 547.6,532.6 773.4,500.9 773.5,452.1 592.8,477.5 592.9,428.8 728.4,409.7 728.5,361 
			593,380 593.1,331.2 773.8,305.9 773.9,257.1 		"/>
		<polygon fill="#FFFFFF" points="277.2,326.9 276.6,569.4 502.4,537.7 502.7,391.4 367.2,410.5 367.1,459.2 457.5,446.5 
			457.4,495.3 321.9,514.3 322.1,369.3 322.2,369.3 502.8,343.9 502.5,343.8 502.8,343.9 502.9,295.2 		"/>
		<polygon fill="#FFFFFF" points="1270.3,431 1315.4,424.7 1315.5,375.9 1270.4,382.3 		"/>
		<polygon fill="#FFFFFF" points="1225.2,388.6 1270.4,382.3 1270.4,333.5 1225.3,339.9 		"/>
	</g>
</g>
</svg>
